<?xml version="1.0" encoding="utf-8"?>
<svg version="1.1" xmlns:xlink="http://www.w3.org/1999/xlink" width="56px" height="50px" xmlns="http://www.w3.org/2000/svg">
  <g transform="matrix(1 0 0 1 -1722 -6267 )">
    <path d="M 23 14.2460317460317  L 23 34.2063492063492  L 37.3333333333333 24.2857142857143  L 23 14.2460317460317  Z M 8.42809364548495 0.714285714285712  C 13.651430694909 0.238095238095237  20.1753994797473 0  28 0  C 31.4960981047938 0  34.8725380899294 0.0595238095238093  38.1293199554069 0.178571428571428  C 41.3861018208844 0.297619047619047  43.7740616871052 0.42328042328042  45.2931995540691 0.555555555555554  L 47.5719063545151 0.714285714285712  C 47.5927164622817 0.714285714285712  47.769602378298 0.734126984126982  48.1025641025641 0.773809523809521  C 48.4355258268302 0.813492063492066  48.6748420661464 0.853174603174606  48.8205128205128 0.892857142857145  C 48.9661835748792 0.932539682539685  49.2107023411371 0.992063492063494  49.5540691192865 1.07142857142857  C 49.8974358974359 1.15079365079365  50.1939799331104 1.25661375661375  50.4437012263099 1.38888888888889  C 50.6934225195095 1.52116402116402  50.9847640282423 1.69312169312169  51.3177257525084 1.9047619047619  C 51.6506874767744 2.11640211640211  51.9732441471572 2.37433862433862  52.2853957636566 2.67857142857143  C 52.5975473801561 2.98280423280423  52.8992939427722 3.33333333333333  53.190635451505 3.73015873015873  C 53.3154960981048 3.88888888888889  53.4767744332962 4.13359788359788  53.6744704570792 4.46428571428572  C 53.8721664808621 4.79497354497354  54.1739130434783 5.56878306878307  54.5797101449275 6.78571428571428  C 54.9855072463768 8.00264550264549  55.2612411742847 9.33862433862434  55.4069119286511 10.7936507936508  C 55.5733927907841 12.4867724867725  55.7034559643255 14.292328042328  55.7971014492754 16.2103174603175  C 55.8907469342252 18.1283068783069  55.9479747305834 19.6296296296296  55.9687848383501 20.7142857142857  L 55.9687848383501 22.3015873015873  L 55.9687848383501 27.6984126984127  C 55.9895949461167 31.5343915343915  55.802303976217 35.3703703703704  55.4069119286511 39.2063492063492  C 55.2612411742847 40.6613756613757  55.0011148272018 41.9775132275132  54.6265328874025 43.1547619047619  C 54.2519509476031 44.3320105820106  53.9189892233371 45.1455026455027  53.6276477146042 45.5952380952381  L 53.190635451505 46.2698412698413  C 52.8992939427722 46.6666666666667  52.5975473801561 47.0171957671958  52.2853957636566 47.3214285714286  C 51.9732441471572 47.6256613756614  51.6506874767744 47.8769841269841  51.3177257525084 48.0753968253968  C 50.9847640282423 48.2738095238095  50.6934225195095 48.4391534391534  50.4437012263099 48.5714285714286  C 50.1939799331104 48.7037037037037  49.8974358974359 48.8095238095238  49.5540691192865 48.8888888888889  C 49.2107023411371 48.968253968254  48.9609810479376 49.0277777777778  48.8049052396878 49.0674603174603  C 48.6488294314381 49.1071428571429  48.4095131921219 49.1468253968254  48.0869565217391 49.1865079365079  C 47.7643998513564 49.2261904761905  47.5927164622817 49.2460317460317  47.5719063545151 49.2460317460317  C 42.348569305091 49.7486772486773  35.8246005202527 50  28 50  C 23.6923076923077 49.94708994709  19.951690821256 49.8611111111111  16.778149386845 49.7420634920635  C 13.604607952434 49.6230158730159  11.5183946488294 49.5238095238095  10.5195094760312 49.4444444444444  L 8.98996655518395 49.2857142857143  L 7.86622073578595 49.1269841269841  C 7.11705685618729 48.994708994709  6.54998141954664 48.8624338624339  6.16499442586399 48.7301587301587  C 5.78000743218135 48.5978835978836  5.24934968413229 48.3201058201058  4.57302118171683 47.8968253968254  C 3.89669267930138 47.473544973545  3.30880713489409 46.9312169312169  2.80936454849498 46.2698412698413  C 2.68450390189521 46.1111111111111  2.52322556670383 45.8664021164021  2.32552954292085 45.5357142857143  C 2.12783351913787 45.2050264550265  1.82608695652174 44.4312169312169  1.42028985507246 43.2142857142857  C 1.01449275362319 41.9973544973545  0.738758825715347 40.6613756613757  0.593088071348941 39.2063492063492  C 0.426607209215905 37.5132275132275  0.296544035674471 35.707671957672  0.202898550724638 33.7896825396825  C 0.109253065774805 31.8716931216931  0.0520252694165738 30.3703703703704  0.0312151616499443 29.2857142857143  L 0.0312151616499443 27.6984126984127  L 0.0312151616499443 22.3015873015873  C 0.0104050538833148 18.4656084656085  0.19769602378298 14.6296296296296  0.593088071348941 10.7936507936508  C 0.738758825715347 9.33862433862434  0.998885172798216 8.02248677248677  1.37346711259755 6.84523809523809  C 1.74804905239688 5.66798941798942  2.08101077666295 4.85449735449735  2.37235228539576 4.40476190476191  L 2.80936454849498 3.73015873015873  C 3.1007060572278 3.33333333333333  3.40245261984392 2.98280423280423  3.71460423634337 2.67857142857143  C 4.02675585284281 2.37433862433862  4.34931252322557 2.11640211640211  4.68227424749164 1.9047619047619  C 5.01523597175771 1.69312169312169  5.30657748049052 1.52116402116402  5.55629877369008 1.38888888888889  C 5.80602006688963 1.25661375661375  6.1025641025641 1.15079365079365  6.44593088071349 1.07142857142857  C 6.78929765886288 0.992063492063494  7.03381642512077 0.932539682539685  7.17948717948718 0.892857142857145  C 7.32515793385359 0.853174603174606  7.56447417316983 0.813492063492066  7.8974358974359 0.773809523809521  C 8.23039762170197 0.734126984126982  8.40728353771832 0.714285714285712  8.42809364548495 0.714285714285712  Z " fill-rule="nonzero" fill="#ff0000" stroke="none" transform="matrix(1 0 0 1 1722 6267 )" />
  </g>
</svg>