<?xml version="1.0" encoding="utf-8"?>
<svg version="1.1" xmlns:xlink="http://www.w3.org/1999/xlink" width="22px" height="22px" xmlns="http://www.w3.org/2000/svg">
  <g transform="matrix(1 0 0 1 -664 -6453 )">
    <path d="M 4.39508928571429 13.96484375  C 5.1889880952381 14.7464657738095  6.19977678571429 15.1372767857143  7.42745535714286 15.1372767857143  C 8.6796875 15.1372767857143  9.73139880952381 14.711681547619  10.5825892857143 13.8604910714286  C 10.6971726190476 13.7131696428571  10.7094494047619 13.5658482142857  10.6194196428571 13.4185267857143  L 10.0669642857143 12.4118303571429  C 10.0178571428571 12.305431547619  9.91964285714286 12.2358630952381  9.77232142857143 12.203125  C 9.64136904761905 12.186755952381  9.53087797619048 12.2317708333333  9.44084821428572 12.3381696428571  L 9.39174107142857 12.375  C 9.35900297619048 12.4077380952381  9.31194196428572 12.4486607142857  9.25055803571428 12.4977678571429  C 9.18917410714286 12.546875  9.11755952380952 12.6021205357143  9.03571428571428 12.6635044642857  C 8.95386904761905 12.7248883928571  8.85770089285714 12.7842261904762  8.74720982142857 12.8415178571429  C 8.63671875 12.8988095238095  8.52008928571428 12.9520089285714  8.39732142857143 13.0011160714286  C 8.27455357142857 13.0502232142857  8.13746279761905 13.089099702381  7.98604910714286 13.1177455357143  C 7.83463541666667 13.1463913690476  7.6811755952381 13.1607142857143  7.52566964285714 13.1607142857143  C 6.90364583333333 13.1607142857143  6.3921130952381 12.9561011904762  5.99107142857143 12.546875  C 5.59002976190476 12.1376488095238  5.38950892857143 11.617931547619  5.38950892857143 10.9877232142857  C 5.38950892857143 10.3656994047619  5.5859375 9.85212053571428  5.97879464285714 9.44698660714286  C 6.37165178571429 9.04185267857143  6.87090773809524 8.83928571428572  7.4765625 8.83928571428572  C 7.77938988095238 8.83928571428572  8.07198660714286 8.89657738095238  8.35435267857143 9.01116071428572  C 8.63671875 9.12574404761905  8.84337797619048 9.24032738095238  8.97433035714286 9.35491071428572  L 9.17075892857143 9.52678571428572  C 9.26078869047619 9.61681547619048  9.3671875 9.65773809523809  9.48995535714286 9.64955357142857  C 9.62090773809524 9.63318452380952  9.71912202380952 9.57589285714286  9.78459821428572 9.47767857142857  L 10.4352678571429 8.52008928571428  C 10.5416666666667 8.35639880952381  10.5334821428571 8.19680059523809  10.4107142857143 8.04129464285714  C 10.3861607142857 8.00855654761905  10.3411458333333 7.95944940476191  10.2756696428571 7.89397321428571  C 10.210193452381 7.82849702380952  10.0874255952381 7.73232886904762  9.90736607142857 7.60546875  C 9.72730654761905 7.47860863095238  9.5288318452381 7.36402529761905  9.31194196428572 7.26171875  C 9.09505208333333 7.15941220238095  8.81882440476191 7.06733630952381  8.48325892857143 6.98549107142857  C 8.14769345238095 6.90364583333333  7.79575892857143 6.86272321428571  7.42745535714286 6.86272321428571  C 6.21614583333333 6.86272321428571  5.20944940476191 7.25762648809524  4.40736607142857 8.04743303571428  C 3.60528273809524 8.83723958333333  3.20424107142857 9.82142857142857  3.20424107142857 11  C 3.20424107142857 12.1949404761905  3.60119047619048 13.1832217261905  4.39508928571429 13.96484375  Z M 12.1294642857143 13.96484375  C 12.9233630952381 14.7464657738095  13.9341517857143 15.1372767857143  15.1618303571429 15.1372767857143  C 16.4140625 15.1372767857143  17.4657738095238 14.711681547619  18.3169642857143 13.8604910714286  C 18.4315476190476 13.7131696428571  18.4479166666667 13.5658482142857  18.3660714285714 13.4185267857143  L 17.8136160714286 12.4118303571429  C 17.7481398809524 12.2972470238095  17.6458333333333 12.2276785714286  17.5066964285714 12.203125  C 17.375744047619 12.186755952381  17.2652529761905 12.2317708333333  17.1752232142857 12.3381696428571  L 17.1261160714286 12.375  C 17.0933779761905 12.4077380952381  17.0463169642857 12.4486607142857  16.9849330357143 12.4977678571429  C 16.9235491071429 12.546875  16.8519345238095 12.6021205357143  16.7700892857143 12.6635044642857  C 16.688244047619 12.7248883928571  16.5920758928571 12.7842261904762  16.4815848214286 12.8415178571429  C 16.37109375 12.8988095238095  16.2544642857143 12.9520089285714  16.1316964285714 13.0011160714286  C 16.0089285714286 13.0502232142857  15.871837797619 13.089099702381  15.7204241071429 13.1177455357143  C 15.5690104166667 13.1463913690476  15.4155505952381 13.1607142857143  15.2600446428571 13.1607142857143  C 14.6380208333333 13.1607142857143  14.1264880952381 12.9561011904762  13.7254464285714 12.546875  C 13.3244047619048 12.1376488095238  13.1238839285714 11.617931547619  13.1238839285714 10.9877232142857  C 13.1238839285714 10.3656994047619  13.3203125 9.85212053571428  13.7131696428571 9.44698660714286  C 14.1060267857143 9.04185267857143  14.6052827380952 8.83928571428572  15.2109375 8.83928571428572  C 15.5137648809524 8.83928571428572  15.8063616071429 8.89657738095238  16.0887276785714 9.01116071428572  C 16.37109375 9.12574404761905  16.5777529761905 9.24032738095238  16.7087053571429 9.35491071428572  L 16.9051339285714 9.52678571428572  C 16.9951636904762 9.61681547619048  17.1015625 9.65773809523809  17.2243303571429 9.64955357142857  C 17.3552827380952 9.63318452380952  17.4534970238095 9.57589285714286  17.5189732142857 9.47767857142857  L 18.1696428571429 8.52008928571428  C 18.2760416666667 8.35639880952381  18.2678571428571 8.19680059523809  18.1450892857143 8.04129464285714  C 18.1205357142857 8.00855654761905  18.0755208333333 7.95944940476191  18.0100446428571 7.89397321428571  C 17.944568452381 7.82849702380952  17.8218005952381 7.73232886904762  17.6417410714286 7.60546875  C 17.461681547619 7.47860863095238  17.2632068452381 7.36402529761905  17.0463169642857 7.26171875  C 16.8294270833333 7.15941220238095  16.5531994047619 7.06733630952381  16.2176339285714 6.98549107142857  C 15.882068452381 6.90364583333333  15.5301339285714 6.86272321428571  15.1618303571429 6.86272321428571  C 13.9587053571429 6.86272321428571  12.9540550595238 7.25762648809524  12.1478794642857 8.04743303571428  C 11.3417038690476 8.83723958333333  10.9386160714286 9.82142857142857  10.9386160714286 11  C 10.9386160714286 12.1949404761905  11.3355654761905 13.1832217261905  12.1294642857143 13.96484375  Z M 14.5111607142857 2.68247767857143  C 13.3980654761905 2.20368303571429  12.2276785714286 1.96428571428571  11 1.96428571428571  C 9.77232142857143 1.96428571428571  8.60193452380952 2.20368303571429  7.48883928571429 2.68247767857143  C 6.37574404761905 3.16127232142857  5.41610863095238 3.80375744047619  4.60993303571429 4.60993303571429  C 3.80375744047619 5.41610863095238  3.16127232142857 6.37574404761905  2.68247767857143 7.48883928571429  C 2.20368303571429 8.60193452380952  1.96428571428571 9.77232142857143  1.96428571428571 11  C 1.96428571428571 12.2276785714286  2.20368303571429 13.3980654761905  2.68247767857143 14.5111607142857  C 3.16127232142857 15.624255952381  3.80375744047619 16.5838913690476  4.60993303571429 17.3900669642857  C 5.41610863095238 18.1962425595238  6.37574404761905 18.8387276785714  7.48883928571429 19.3175223214286  C 8.60193452380952 19.7963169642857  9.77232142857143 20.0357142857143  11 20.0357142857143  C 12.2276785714286 20.0357142857143  13.3980654761905 19.7963169642857  14.5111607142857 19.3175223214286  C 15.624255952381 18.8387276785714  16.5838913690476 18.1962425595238  17.3900669642857 17.3900669642857  C 18.1962425595238 16.5838913690476  18.8387276785714 15.624255952381  19.3175223214286 14.5111607142857  C 19.7963169642857 13.3980654761905  20.0357142857143 12.2276785714286  20.0357142857143 11  C 20.0357142857143 9.77232142857143  19.7963169642857 8.60193452380952  19.3175223214286 7.48883928571429  C 18.8387276785714 6.37574404761905  18.1962425595238 5.41610863095238  17.3900669642857 4.60993303571429  C 16.5838913690476 3.80375744047619  15.624255952381 3.16127232142857  14.5111607142857 2.68247767857143  Z M 6.72767857142857 0.871651785714285  C 8.08630952380952 0.290550595238095  9.51041666666667 0  11 0  C 12.4895833333333 0  13.9136904761905 0.290550595238095  15.2723214285714 0.871651785714285  C 16.6309523809524 1.45275297619048  17.8013392857143 2.234375  18.7834821428571 3.21651785714286  C 19.765625 4.19866071428571  20.5472470238095 5.36904761904762  21.1283482142857 6.72767857142857  C 21.7094494047619 8.08630952380952  22 9.51041666666667  22 11  C 22 12.4895833333333  21.7094494047619 13.9136904761905  21.1283482142857 15.2723214285714  C 20.5472470238095 16.6309523809524  19.765625 17.8013392857143  18.7834821428571 18.7834821428571  C 17.8013392857143 19.765625  16.6309523809524 20.5472470238095  15.2723214285714 21.1283482142857  C 13.9136904761905 21.7094494047619  12.4895833333333 22  11 22  C 9.51041666666667 22  8.08630952380952 21.7094494047619  6.72767857142857 21.1283482142857  C 5.36904761904762 20.5472470238095  4.19866071428571 19.765625  3.21651785714286 18.7834821428571  C 2.234375 17.8013392857143  1.45275297619048 16.6309523809524  0.871651785714286 15.2723214285714  C 0.290550595238095 13.9136904761905  0 12.4895833333333  0 11  C 0 9.51041666666667  0.290550595238095 8.08630952380952  0.871651785714286 6.72767857142857  C 1.45275297619048 5.36904761904762  2.234375 4.19866071428571  3.21651785714286 3.21651785714286  C 4.19866071428571 2.234375  5.36904761904762 1.45275297619048  6.72767857142857 0.871651785714285  Z " fill-rule="nonzero" fill="#ffffff" stroke="none" transform="matrix(1 0 0 1 664 6453 )" />
  </g>
</svg>