<?xml version="1.0" encoding="utf-8"?>
<svg version="1.1" xmlns:xlink="http://www.w3.org/1999/xlink" width="17px" height="16px" xmlns="http://www.w3.org/2000/svg">
  <defs>
    <radialGradient cx="7.40152994791667" cy="7.92011019283747" r="15.2116029702158" gradientTransform="matrix(1 -7.00658639149999E-16 6.97593044715215E-16 0.995624696159455 -5.30479067247071E-15 0.0346528885442634 )" gradientUnits="userSpaceOnUse" id="RadialGradient337">
      <stop id="Stop338" stop-color="#0d3c78" offset="0" />
      <stop id="Stop339" stop-color="#0d3c78" offset="1" />
    </radialGradient>
  </defs>
  <g transform="matrix(1 0 0 1 -44 -1172 )">
    <path d="M 16.6929032258065 2.20875420875421  C 16.8976344086022 2.46015712682379  17 2.76543209876543  17 3.12457912457912  C 17 3.48372615039282  16.8976344086022 3.78900112233445  16.6929032258065 4.04040404040404  L 8.75225806451613 13.7912457912458  L 7.26064516129032 15.6228956228956  C 7.05591397849462 15.8742985409652  6.80731182795699 16  6.51483870967742 16  C 6.22236559139785 16  5.97376344086022 15.8742985409652  5.76903225806452 15.6228956228956  L 4.27741935483871 13.7912457912458  L 0.307096774193548 8.91582491582492  C 0.10236559139785 8.66442199775533  0 8.35914702581369  0 8  C 0 7.64085297418631  0.10236559139785 7.33557800224467  0.307096774193548 7.08417508417508  L 1.79870967741935 5.25252525252525  C 2.00344086021505 5.00112233445567  2.25204301075269 4.87542087542087  2.54451612903226 4.87542087542088  C 2.83698924731183 4.87542087542087  3.08559139784946 5.00112233445567  3.29032258064516 5.25252525252525  L 6.51483870967742 9.22558922558922  L 13.7096774193548 0.377104377104377  C 13.9144086021505 0.125701459034792  14.1630107526882 0  14.4554838709677 0  C 14.7479569892473 0  14.9965591397849 0.125701459034792  15.2012903225806 0.377104377104377  L 16.6929032258065 2.20875420875421  Z " fill-rule="nonzero" fill="url(#RadialGradient337)" stroke="none" transform="matrix(1 0 0 1 44 1172 )" />
  </g>
</svg>