<?xml version="1.0" encoding="utf-8"?>
<svg version="1.1" xmlns:xlink="http://www.w3.org/1999/xlink" width="22px" height="29px" xmlns="http://www.w3.org/2000/svg">
  <defs>
    <radialGradient cx="9.57845052083333" cy="14.3551997245179" r="27.4503987483914" gradientTransform="matrix(0.717133620689655 -7.11826644578261E-16 9.92599738795832E-16 1 2.7094216182314 6.19241300645697E-15 )" gradientUnits="userSpaceOnUse" id="RadialGradient340">
      <stop id="Stop341" stop-color="#0d3c78" offset="0" />
      <stop id="Stop342" stop-color="#0d3c78" offset="1" />
    </radialGradient>
  </defs>
  <g transform="matrix(1 0 0 1 -62 -1676 )">
    <path d="M 14.888671875 13.083984375  C 15.962890625 12.1399739583333  16.5 11.0008680555556  16.5 9.66666666666667  C 16.5 8.33246527777778  15.962890625 7.193359375  14.888671875 6.24934895833333  C 13.814453125 5.30533854166667  12.5182291666667 4.83333333333333  11 4.83333333333333  C 9.48177083333333 4.83333333333333  8.185546875 5.30533854166667  7.111328125 6.24934895833333  C 6.037109375 7.193359375  5.5 8.33246527777778  5.5 9.66666666666667  C 5.5 11.0008680555556  6.037109375 12.1399739583333  7.111328125 13.083984375  C 8.185546875 14.0279947916667  9.48177083333333 14.5  11 14.5  C 12.5182291666667 14.5  13.814453125 14.0279947916667  14.888671875 13.083984375  Z M 18.77734375 2.83203125  C 20.92578125 4.72005208333333  22 6.99826388888888  22 9.66666666666667  C 22 11.0386284722222  21.763671875 12.1651475694444  21.291015625 13.0462239583333  L 13.470703125 27.6595052083333  C 13.2415364583333 28.0748697916667  12.9013671875 28.4021267361111  12.4501953125 28.6412760416667  C 11.9990234375 28.8804253472222  11.515625 29  11 29  C 10.484375 29  10.0009765625 28.8804253472222  9.5498046875 28.6412760416667  C 9.0986328125 28.4021267361111  8.765625 28.0748697916667  8.55078125 27.6595052083333  L 0.708984375 13.0462239583333  C 0.236328125 12.1651475694444  0 11.0386284722222  0 9.66666666666667  C 0 6.99826388888888  1.07421875 4.72005208333333  3.22265625 2.83203125  C 5.37109375 0.944010416666668  7.96354166666667 0  11 0  C 14.0364583333333 0  16.62890625 0.944010416666668  18.77734375 2.83203125  Z " fill-rule="nonzero" fill="url(#RadialGradient340)" stroke="none" transform="matrix(1 0 0 1 62 1676 )" />
  </g>
</svg>