<?xml version="1.0" encoding="utf-8"?>
<svg version="1.1" xmlns:xlink="http://www.w3.org/1999/xlink" width="24px" height="24px" xmlns="http://www.w3.org/2000/svg">
  <g transform="matrix(1 0 0 1 -214 -2765 )">
    <path d="M 4.5 0  L 19.5 0  C 20.7395833333333 0  21.7994791666667 0.440104166666665  22.6796875 1.3203125  C 23.5598958333333 2.20052083333333  24 3.26041666666666  24 4.5  L 24 19.5  C 24 20.7395833333333  23.5598958333333 21.7994791666667  22.6796875 22.6796875  C 21.7994791666667 23.5598958333333  20.7395833333333 24  19.5 24  L 16.5625 24  L 16.5625 14.703125  L 19.671875 14.703125  L 20.140625 11.078125  L 16.5625 11.078125  L 16.5625 8.765625  C 16.5625 8.18229166666666  16.6848958333333 7.74479166666666  16.9296875 7.453125  C 17.1744791666667 7.16145833333333  17.6510416666667 7.015625  18.359375 7.015625  L 20.265625 7  L 20.265625 3.765625  C 19.609375 3.671875  18.6822916666667 3.625  17.484375 3.625  C 16.0677083333333 3.625  14.9348958333333 4.04166666666666  14.0859375 4.875  C 13.2369791666667 5.70833333333333  12.8125 6.88541666666667  12.8125 8.40625  L 12.8125 11.078125  L 9.6875 11.078125  L 9.6875 14.703125  L 12.8125 14.703125  L 12.8125 24  L 4.5 24  C 3.26041666666667 24  2.20052083333333 23.5598958333333  1.3203125 22.6796875  C 0.440104166666667 21.7994791666667  0 20.7395833333333  0 19.5  L 0 4.5  C 0 3.26041666666666  0.440104166666667 2.20052083333333  1.3203125 1.3203125  C 2.20052083333333 0.440104166666665  3.26041666666667 0  4.5 0  Z " fill-rule="nonzero" fill="#006aff" stroke="none" transform="matrix(1 0 0 1 214 2765 )" />
  </g>
</svg>