<?xml version="1.0" encoding="utf-8"?>
<svg version="1.1" xmlns:xlink="http://www.w3.org/1999/xlink" width="24px" height="24px" xmlns="http://www.w3.org/2000/svg">
  <g transform="matrix(1 0 0 1 -243 -2765 )">
    <path d="M 14.828125 14.828125  C 15.609375 14.046875  16 13.1041666666667  16 12  C 16 10.8958333333333  15.609375 9.953125  14.828125 9.171875  C 14.046875 8.390625  13.1041666666667 8  12 8  C 10.8958333333333 8  9.953125 8.390625  9.171875 9.171875  C 8.390625 9.953125  8 10.8958333333333  8 12  C 8 13.1041666666667  8.390625 14.046875  9.171875 14.828125  C 9.953125 15.609375  10.8958333333333 16  12 16  C 13.1041666666667 16  14.046875 15.609375  14.828125 14.828125  Z M 16.359375 7.640625  C 17.5572916666667 8.83854166666666  18.15625 10.2916666666667  18.15625 12  C 18.15625 13.7083333333333  17.5572916666667 15.1614583333333  16.359375 16.359375  C 15.1614583333333 17.5572916666667  13.7083333333333 18.15625  12 18.15625  C 10.2916666666667 18.15625  8.83854166666667 17.5572916666667  7.640625 16.359375  C 6.44270833333333 15.1614583333333  5.84375 13.7083333333333  5.84375 12  C 5.84375 10.2916666666667  6.44270833333333 8.83854166666666  7.640625 7.640625  C 8.83854166666667 6.44270833333333  10.2916666666667 5.84375  12 5.84375  C 13.7083333333333 5.84375  15.1614583333333 6.44270833333333  16.359375 7.640625  Z M 19.421875 4.578125  C 19.703125 4.859375  19.84375 5.19791666666667  19.84375 5.59375  C 19.84375 5.98958333333333  19.703125 6.328125  19.421875 6.609375  C 19.140625 6.890625  18.8020833333333 7.03125  18.40625 7.03125  C 18.0104166666667 7.03125  17.671875 6.890625  17.390625 6.609375  C 17.109375 6.328125  16.96875 5.98958333333333  16.96875 5.59375  C 16.96875 5.19791666666667  17.109375 4.859375  17.390625 4.578125  C 17.671875 4.296875  18.0104166666667 4.15625  18.40625 4.15625  C 18.8020833333333 4.15625  19.140625 4.296875  19.421875 4.578125  Z M 13.1953125 2.1484375  C 12.4713541666667 2.15364583333333  12.0729166666667 2.15625  12 2.15625  C 11.9270833333333 2.15625  11.5286458333333 2.15364583333333  10.8046875 2.1484375  C 10.0807291666667 2.14322916666666  9.53125 2.14322916666666  9.15625 2.1484375  C 8.78125 2.15364583333333  8.27864583333333 2.16927083333333  7.6484375 2.1953125  C 7.01822916666667 2.22135416666667  6.48177083333333 2.2734375  6.0390625 2.3515625  C 5.59635416666667 2.4296875  5.22395833333333 2.52604166666667  4.921875 2.640625  C 4.40104166666667 2.84895833333333  3.94270833333333 3.15104166666666  3.546875 3.546875  C 3.15104166666667 3.94270833333333  2.84895833333333 4.40104166666667  2.640625 4.921875  C 2.52604166666667 5.22395833333333  2.4296875 5.59635416666667  2.3515625 6.0390625  C 2.2734375 6.48177083333333  2.22135416666667 7.01822916666666  2.1953125 7.6484375  C 2.16927083333333 8.27864583333333  2.15364583333333 8.78125  2.1484375 9.15625  C 2.14322916666667 9.53125  2.14322916666667 10.0807291666667  2.1484375 10.8046875  C 2.15364583333333 11.5286458333333  2.15625 11.9270833333333  2.15625 12  C 2.15625 12.0729166666667  2.15364583333333 12.4713541666667  2.1484375 13.1953125  C 2.14322916666667 13.9192708333333  2.14322916666667 14.46875  2.1484375 14.84375  C 2.15364583333333 15.21875  2.16927083333333 15.7213541666667  2.1953125 16.3515625  C 2.22135416666667 16.9817708333333  2.2734375 17.5182291666667  2.3515625 17.9609375  C 2.4296875 18.4036458333333  2.52604166666667 18.7760416666667  2.640625 19.078125  C 2.84895833333333 19.5989583333333  3.15104166666667 20.0572916666667  3.546875 20.453125  C 3.94270833333333 20.8489583333333  4.40104166666667 21.1510416666667  4.921875 21.359375  C 5.22395833333333 21.4739583333333  5.59635416666667 21.5703125  6.0390625 21.6484375  C 6.48177083333333 21.7265625  7.01822916666667 21.7786458333333  7.6484375 21.8046875  C 8.27864583333333 21.8307291666667  8.78125 21.8463541666667  9.15625 21.8515625  C 9.53125 21.8567708333333  10.0807291666667 21.8567708333333  10.8046875 21.8515625  C 11.5286458333333 21.8463541666667  11.9270833333333 21.84375  12 21.84375  C 12.0729166666667 21.84375  12.4713541666667 21.8463541666667  13.1953125 21.8515625  C 13.9192708333333 21.8567708333333  14.46875 21.8567708333333  14.84375 21.8515625  C 15.21875 21.8463541666667  15.7213541666667 21.8307291666667  16.3515625 21.8046875  C 16.9817708333333 21.7786458333333  17.5182291666667 21.7265625  17.9609375 21.6484375  C 18.4036458333333 21.5703125  18.7760416666667 21.4739583333333  19.078125 21.359375  C 19.5989583333333 21.1510416666667  20.0572916666667 20.8489583333333  20.453125 20.453125  C 20.8489583333333 20.0572916666667  21.1510416666667 19.5989583333333  21.359375 19.078125  C 21.4739583333333 18.7760416666667  21.5703125 18.4036458333333  21.6484375 17.9609375  C 21.7265625 17.5182291666667  21.7786458333333 16.9817708333333  21.8046875 16.3515625  C 21.8307291666667 15.7213541666667  21.8463541666667 15.21875  21.8515625 14.84375  C 21.8567708333333 14.46875  21.8567708333333 13.9192708333333  21.8515625 13.1953125  C 21.8463541666667 12.4713541666667  21.84375 12.0729166666667  21.84375 12  C 21.84375 11.9270833333333  21.8463541666667 11.5286458333333  21.8515625 10.8046875  C 21.8567708333333 10.0807291666667  21.8567708333333 9.53125  21.8515625 9.15625  C 21.8463541666667 8.78125  21.8307291666667 8.27864583333333  21.8046875 7.6484375  C 21.7786458333333 7.01822916666666  21.7265625 6.48177083333333  21.6484375 6.0390625  C 21.5703125 5.59635416666667  21.4739583333333 5.22395833333333  21.359375 4.921875  C 21.1510416666667 4.40104166666667  20.8489583333333 3.94270833333333  20.453125 3.546875  C 20.0572916666667 3.15104166666666  19.5989583333333 2.84895833333333  19.078125 2.640625  C 18.7760416666667 2.52604166666667  18.4036458333333 2.4296875  17.9609375 2.3515625  C 17.5182291666667 2.2734375  16.9817708333333 2.22135416666667  16.3515625 2.1953125  C 15.7213541666667 2.16927083333333  15.21875 2.15364583333333  14.84375 2.1484375  C 14.46875 2.14322916666666  13.9192708333333 2.14322916666666  13.1953125 2.1484375  Z M 23.921875 7.046875  C 23.9739583333333 7.96354166666667  24 9.61458333333333  24 12  C 24 14.3854166666667  23.9739583333333 16.0364583333333  23.921875 16.953125  C 23.8177083333333 19.1197916666667  23.171875 20.796875  21.984375 21.984375  C 20.796875 23.171875  19.1197916666667 23.8177083333333  16.953125 23.921875  C 16.0364583333333 23.9739583333333  14.3854166666667 24  12 24  C 9.61458333333333 24  7.96354166666667 23.9739583333333  7.046875 23.921875  C 4.88020833333333 23.8177083333333  3.203125 23.171875  2.015625 21.984375  C 0.828125 20.796875  0.182291666666667 19.1197916666667  0.078125 16.953125  C 0.0260416666666667 16.0364583333333  0 14.3854166666667  0 12  C 0 9.61458333333333  0.0260416666666667 7.96354166666667  0.078125 7.046875  C 0.182291666666667 4.88020833333333  0.828125 3.203125  2.015625 2.015625  C 3.203125 0.828125000000001  4.88020833333333 0.182291666666665  7.046875 0.0781250000000009  C 7.96354166666667 0.0260416666666634  9.61458333333333 0  12 0  C 14.3854166666667 0  16.0364583333333 0.0260416666666634  16.953125 0.0781250000000009  C 19.1197916666667 0.182291666666665  20.796875 0.828125000000001  21.984375 2.015625  C 23.171875 3.203125  23.8177083333333 4.88020833333333  23.921875 7.046875  Z " fill-rule="nonzero" fill="#bd4700" stroke="none" transform="matrix(1 0 0 1 243 2765 )" />
  </g>
</svg>