<?xml version="1.0" encoding="utf-8"?>
<svg version="1.1" xmlns:xlink="http://www.w3.org/1999/xlink" width="24px" height="24px" xmlns="http://www.w3.org/2000/svg">
  <g transform="matrix(1 0 0 1 -273 -2765 )">
    <path d="M 18.359375 9.234375  C 19.015625 8.765625  19.5625 8.19791666666666  20 7.53125  C 19.4166666666667 7.79166666666666  18.7864583333333 7.96875  18.109375 8.0625  C 18.8177083333333 7.64583333333333  19.3020833333333 7.03645833333333  19.5625 6.234375  C 18.8854166666667 6.63020833333333  18.1875 6.89583333333333  17.46875 7.03125  C 16.8333333333333 6.34375  16.0364583333333 6  15.078125 6  C 14.171875 6  13.3984375 6.3203125  12.7578125 6.9609375  C 12.1171875 7.6015625  11.796875 8.375  11.796875 9.28125  C 11.796875 9.58333333333333  11.8229166666667 9.83333333333333  11.875 10.03125  C 10.53125 9.95833333333333  9.27083333333333 9.61979166666667  8.09375 9.015625  C 6.91666666666667 8.41145833333333  5.91666666666667 7.60416666666666  5.09375 6.59375  C 4.79166666666667 7.11458333333333  4.640625 7.66666666666666  4.640625 8.25  C 4.640625 9.4375  5.11458333333333 10.3489583333333  6.0625 10.984375  C 5.57291666666667 10.9739583333333  5.05208333333333 10.8385416666667  4.5 10.578125  L 4.5 10.609375  C 4.5 11.390625  4.76041666666667 12.0859375  5.28125 12.6953125  C 5.80208333333333 13.3046875  6.44270833333333 13.6822916666667  7.203125 13.828125  C 6.90104166666667 13.9114583333333  6.63541666666667 13.953125  6.40625 13.953125  C 6.27083333333333 13.953125  6.06770833333333 13.9322916666667  5.796875 13.890625  C 6.015625 14.546875  6.40364583333333 15.0885416666667  6.9609375 15.515625  C 7.51822916666667 15.9427083333333  8.15104166666667 16.1614583333333  8.859375 16.171875  C 7.65104166666667 17.109375  6.29166666666667 17.578125  4.78125 17.578125  C 4.51041666666667 17.578125  4.25 17.5625  4 17.53125  C 5.54166666666667 18.5104166666667  7.21875 19  9.03125 19  C 10.1979166666667 19  11.2916666666667 18.8151041666667  12.3125 18.4453125  C 13.3333333333333 18.0755208333333  14.2083333333333 17.5807291666667  14.9375 16.9609375  C 15.6666666666667 16.3411458333333  16.2942708333333 15.6276041666667  16.8203125 14.8203125  C 17.3463541666667 14.0130208333333  17.7369791666667 13.1692708333333  17.9921875 12.2890625  C 18.2473958333333 11.4088541666667  18.375 10.53125  18.375 9.65625  C 18.375 9.46875  18.3697916666667 9.328125  18.359375 9.234375  Z M 22.6796875 1.3203125  C 23.5598958333333 2.20052083333333  24 3.26041666666666  24 4.5  L 24 19.5  C 24 20.7395833333333  23.5598958333333 21.7994791666667  22.6796875 22.6796875  C 21.7994791666667 23.5598958333333  20.7395833333333 24  19.5 24  L 4.5 24  C 3.26041666666667 24  2.20052083333333 23.5598958333333  1.3203125 22.6796875  C 0.440104166666667 21.7994791666667  0 20.7395833333333  0 19.5  L 0 4.5  C 0 3.26041666666666  0.440104166666667 2.20052083333333  1.3203125 1.3203125  C 2.20052083333333 0.440104166666665  3.26041666666667 0  4.5 0  L 19.5 0  C 20.7395833333333 0  21.7994791666667 0.440104166666665  22.6796875 1.3203125  Z " fill-rule="nonzero" fill="#1887bd" stroke="none" transform="matrix(1 0 0 1 273 2765 )" />
  </g>
</svg>