<?xml version="1.0" encoding="utf-8"?>
<svg version="1.1" xmlns:xlink="http://www.w3.org/1999/xlink" width="24px" height="24px" xmlns="http://www.w3.org/2000/svg">
  <g transform="matrix(1 0 0 1 -302 -2765 )">
    <path d="M 9.52508361204013 6.83809523809524  L 9.52508361204013 16.4190476190476  L 16 11.6571428571429  L 9.52508361204013 6.83809523809524  Z M 3.61204013377926 0.342857142857142  C 5.85061315496098 0.114285714285714  8.64659977703456 0  12 0  C 13.4983277591973 0  14.9453734671126 0.0285714285714285  16.3411371237458 0.0857142857142854  C 17.736900780379 0.142857142857142  18.7603121516165 0.203174603174602  19.4113712374582 0.266666666666666  L 20.3879598662207 0.342857142857142  C 20.396878483835 0.342857142857142  20.4726867335563 0.352380952380951  20.6153846153846 0.37142857142857  C 20.7580824972129 0.390476190476192  20.860646599777 0.409523809523811  20.9230769230769 0.42857142857143  C 20.9855072463768 0.447619047619049  21.0903010033445 0.476190476190477  21.2374581939799 0.514285714285715  C 21.3846153846154 0.552380952380953  21.5117056856187 0.6031746031746  21.61872909699 0.666666666666667  C 21.7257525083612 0.730158730158728  21.850613154961 0.812698412698409  21.9933110367893 0.914285714285714  C 22.1360089186176 1.01587301587301  22.2742474916388 1.13968253968254  22.4080267558528 1.28571428571429  C 22.5418060200669 1.43174603174603  22.6711259754738 1.6  22.7959866220736 1.79047619047619  C 22.8494983277592 1.86666666666667  22.9186176142698 1.98412698412698  23.0033444816054 2.14285714285714  C 23.0880713489409 2.3015873015873  23.2173913043478 2.67301587301587  23.3913043478261 3.25714285714286  C 23.5652173913044 3.84126984126984  23.6833890746934 4.48253968253968  23.7458193979933 5.18095238095238  C 23.8171683389075 5.99365079365079  23.8729096989967 6.86031746031746  23.9130434782609 7.78095238095238  C 23.9531772575251 8.7015873015873  23.9777034559643 9.42222222222222  23.9866220735786 9.94285714285714  L 23.9866220735786 10.7047619047619  L 23.9866220735786 13.2952380952381  C 23.9955406911929 15.1365079365079  23.9152731326644 16.9777777777778  23.7458193979933 18.8190476190476  C 23.6833890746934 19.5174603174603  23.5719063545151 20.1492063492063  23.4113712374582 20.7142857142857  C 23.2508361204013 21.2793650793651  23.108138238573 21.6698412698413  22.9832775919732 21.8857142857143  L 22.7959866220736 22.2095238095238  C 22.6711259754738 22.4  22.5418060200669 22.568253968254  22.4080267558528 22.7142857142857  C 22.2742474916388 22.8603174603175  22.1360089186176 22.9809523809524  21.9933110367893 23.0761904761905  C 21.850613154961 23.1714285714286  21.7257525083612 23.2507936507937  21.61872909699 23.3142857142857  C 21.5117056856187 23.3777777777778  21.3846153846154 23.4285714285714  21.2374581939799 23.4666666666667  C 21.0903010033445 23.5047619047619  20.9832775919732 23.5333333333333  20.9163879598662 23.552380952381  C 20.8494983277592 23.5714285714286  20.7469342251951 23.5904761904762  20.6086956521739 23.6095238095238  C 20.4704570791527 23.6285714285714  20.396878483835 23.6380952380952  20.3879598662207 23.6380952380952  C 18.149386845039 23.8793650793651  15.3534002229654 24  12 24  C 10.1538461538462 23.9746031746032  8.55072463768116 23.9333333333333  7.19063545150502 23.8761904761905  C 5.83054626532887 23.8190476190476  4.93645484949833 23.7714285714286  4.50836120401338 23.7333333333333  L 3.85284280936455 23.6571428571429  L 3.37123745819398 23.5809523809524  C 3.05016722408027 23.5174603174603  2.80713489409142 23.4539682539683  2.64214046822742 23.3904761904762  C 2.47714604236343 23.3269841269841  2.24972129319955 23.1936507936508  1.95986622073579 22.9904761904762  C 1.67001114827202 22.7873015873016  1.4180602006689 22.5269841269841  1.20401337792642 22.2095238095238  C 1.1505016722408 22.1333333333333  1.08138238573021 22.015873015873  0.996655518394649 21.8571428571429  C 0.911928651059086 21.6984126984127  0.782608695652174 21.3269841269841  0.608695652173913 20.7428571428571  C 0.434782608695652 20.1587301587302  0.316610925306577 19.5174603174603  0.254180602006689 18.8190476190476  C 0.182831661092531 18.0063492063492  0.127090301003345 17.1396825396825  0.0869565217391304 16.2190476190476  C 0.0468227424749164 15.2984126984127  0.0222965440356745 14.5777777777778  0.0133779264214047 14.0571428571429  L 0.0133779264214047 13.2952380952381  L 0.0133779264214047 10.7047619047619  C 0.00445930880713489 8.86349206349206  0.084726867335563 7.02222222222222  0.254180602006689 5.18095238095238  C 0.316610925306577 4.48253968253968  0.42809364548495 3.85079365079365  0.588628762541806 3.28571428571428  C 0.749163879598662 2.72063492063492  0.891861761426979 2.33015873015873  1.01672240802676 2.11428571428571  L 1.20401337792642 1.79047619047619  C 1.3288740245262 1.6  1.45819397993311 1.43174603174603  1.59197324414716 1.28571428571429  C 1.7257525083612 1.13968253968254  1.86399108138239 1.01587301587301  2.0066889632107 0.914285714285714  C 2.14938684503902 0.812698412698409  2.2742474916388 0.730158730158728  2.38127090301003 0.666666666666667  C 2.48829431438127 0.6031746031746  2.61538461538462 0.552380952380953  2.76254180602007 0.514285714285715  C 2.90969899665552 0.476190476190477  3.01449275362319 0.447619047619049  3.07692307692308 0.42857142857143  C 3.13935340022297 0.409523809523811  3.24191750278707 0.390476190476192  3.38461538461538 0.37142857142857  C 3.5273132664437 0.352380952380951  3.603121516165 0.342857142857142  3.61204013377926 0.342857142857142  Z " fill-rule="nonzero" fill="#ff0000" stroke="none" transform="matrix(1 0 0 1 302 2765 )" />
  </g>
</svg>