<?xml version="1.0" encoding="utf-8"?>
<svg version="1.1" xmlns:xlink="http://www.w3.org/1999/xlink" width="16px" height="16px" xmlns="http://www.w3.org/2000/svg">
  <g transform="matrix(1 0 0 1 -65 -2905 )">
    <path d="M 3.19642857142857 10.15625  C 3.77380952380952 10.7247023809524  4.50892857142857 11.0089285714286  5.40178571428571 11.0089285714286  C 6.3125 11.0089285714286  7.07738095238095 10.6994047619048  7.69642857142857 10.0803571428571  C 7.77976190476191 9.97321428571428  7.78869047619048 9.86607142857143  7.72321428571429 9.75892857142857  L 7.32142857142857 9.02678571428572  C 7.28571428571429 8.94940476190476  7.21428571428571 8.89880952380952  7.10714285714286 8.875  C 7.01190476190476 8.86309523809524  6.93154761904762 8.89583333333333  6.86607142857143 8.97321428571428  L 6.83035714285714 9  C 6.80654761904762 9.02380952380952  6.77232142857143 9.05357142857143  6.72767857142857 9.08928571428572  C 6.68303571428571 9.125  6.63095238095238 9.16517857142857  6.57142857142857 9.20982142857143  C 6.51190476190476 9.25446428571428  6.44196428571429 9.29761904761905  6.36160714285714 9.33928571428572  C 6.28125 9.38095238095238  6.19642857142857 9.41964285714286  6.10714285714286 9.45535714285714  C 6.01785714285714 9.49107142857143  5.91815476190476 9.51934523809524  5.80803571428571 9.54017857142857  C 5.69791666666667 9.56101190476191  5.58630952380952 9.57142857142857  5.47321428571429 9.57142857142857  C 5.02083333333333 9.57142857142857  4.64880952380952 9.42261904761905  4.35714285714286 9.125  C 4.06547619047619 8.82738095238095  3.91964285714286 8.44940476190476  3.91964285714286 7.99107142857143  C 3.91964285714286 7.53869047619048  4.0625 7.16517857142857  4.34821428571429 6.87053571428571  C 4.63392857142857 6.57589285714286  4.99702380952381 6.42857142857143  5.4375 6.42857142857143  C 5.6577380952381 6.42857142857143  5.87053571428571 6.47023809523809  6.07589285714286 6.55357142857143  C 6.28125 6.63690476190476  6.43154761904762 6.72023809523809  6.52678571428571 6.80357142857143  L 6.66964285714286 6.92857142857143  C 6.73511904761905 6.99404761904762  6.8125 7.02380952380952  6.90178571428571 7.01785714285714  C 6.99702380952381 7.00595238095238  7.06845238095238 6.96428571428571  7.11607142857143 6.89285714285714  L 7.58928571428571 6.19642857142857  C 7.66666666666667 6.07738095238095  7.66071428571429 5.96130952380952  7.57142857142857 5.84821428571429  C 7.55357142857143 5.82440476190476  7.52083333333333 5.78869047619048  7.47321428571429 5.74107142857143  C 7.42559523809524 5.69345238095238  7.33630952380952 5.6235119047619  7.20535714285714 5.53125  C 7.07440476190476 5.43898809523809  6.93005952380952 5.35565476190476  6.77232142857143 5.28125  C 6.61458333333333 5.20684523809524  6.41369047619048 5.13988095238095  6.16964285714286 5.08035714285714  C 5.92559523809524 5.02083333333333  5.66964285714286 4.99107142857143  5.40178571428571 4.99107142857143  C 4.52083333333333 4.99107142857143  3.78869047619048 5.27827380952381  3.20535714285714 5.85267857142857  C 2.62202380952381 6.42708333333333  2.33035714285714 7.14285714285714  2.33035714285714 8  C 2.33035714285714 8.86904761904762  2.61904761904762 9.58779761904762  3.19642857142857 10.15625  Z M 8.82142857142857 10.15625  C 9.39880952380952 10.7247023809524  10.1339285714286 11.0089285714286  11.0267857142857 11.0089285714286  C 11.9375 11.0089285714286  12.702380952381 10.6994047619048  13.3214285714286 10.0803571428571  C 13.4047619047619 9.97321428571428  13.4166666666667 9.86607142857143  13.3571428571429 9.75892857142857  L 12.9553571428571 9.02678571428572  C 12.9077380952381 8.94345238095238  12.8333333333333 8.89285714285714  12.7321428571429 8.875  C 12.6369047619048 8.86309523809524  12.5565476190476 8.89583333333333  12.4910714285714 8.97321428571428  L 12.4553571428571 9  C 12.4315476190476 9.02380952380952  12.3973214285714 9.05357142857143  12.3526785714286 9.08928571428572  C 12.3080357142857 9.125  12.2559523809524 9.16517857142857  12.1964285714286 9.20982142857143  C 12.1369047619048 9.25446428571428  12.0669642857143 9.29761904761905  11.9866071428571 9.33928571428572  C 11.90625 9.38095238095238  11.8214285714286 9.41964285714286  11.7321428571429 9.45535714285714  C 11.6428571428571 9.49107142857143  11.5431547619048 9.51934523809524  11.4330357142857 9.54017857142857  C 11.3229166666667 9.56101190476191  11.2113095238095 9.57142857142857  11.0982142857143 9.57142857142857  C 10.6458333333333 9.57142857142857  10.2738095238095 9.42261904761905  9.98214285714286 9.125  C 9.69047619047619 8.82738095238095  9.54464285714286 8.44940476190476  9.54464285714286 7.99107142857143  C 9.54464285714286 7.53869047619048  9.6875 7.16517857142857  9.97321428571429 6.87053571428571  C 10.2589285714286 6.57589285714286  10.6220238095238 6.42857142857143  11.0625 6.42857142857143  C 11.2827380952381 6.42857142857143  11.4955357142857 6.47023809523809  11.7008928571429 6.55357142857143  C 11.90625 6.63690476190476  12.0565476190476 6.72023809523809  12.1517857142857 6.80357142857143  L 12.2946428571429 6.92857142857143  C 12.360119047619 6.99404761904762  12.4375 7.02380952380952  12.5267857142857 7.01785714285714  C 12.6220238095238 7.00595238095238  12.6934523809524 6.96428571428571  12.7410714285714 6.89285714285714  L 13.2142857142857 6.19642857142857  C 13.2916666666667 6.07738095238095  13.2857142857143 5.96130952380952  13.1964285714286 5.84821428571429  C 13.1785714285714 5.82440476190476  13.1458333333333 5.78869047619048  13.0982142857143 5.74107142857143  C 13.0505952380952 5.69345238095238  12.9613095238095 5.6235119047619  12.8303571428571 5.53125  C 12.6994047619048 5.43898809523809  12.5550595238095 5.35565476190476  12.3973214285714 5.28125  C 12.2395833333333 5.20684523809524  12.0386904761905 5.13988095238095  11.7946428571429 5.08035714285714  C 11.5505952380952 5.02083333333333  11.2946428571429 4.99107142857143  11.0267857142857 4.99107142857143  C 10.1517857142857 4.99107142857143  9.42113095238095 5.27827380952381  8.83482142857143 5.85267857142857  C 8.24851190476191 6.42708333333333  7.95535714285714 7.14285714285714  7.95535714285714 8  C 7.95535714285714 8.86904761904762  8.24404761904762 9.58779761904762  8.82142857142857 10.15625  Z M 10.5535714285714 1.95089285714286  C 9.74404761904762 1.60267857142857  8.89285714285714 1.42857142857143  8 1.42857142857143  C 7.10714285714286 1.42857142857143  6.25595238095238 1.60267857142857  5.44642857142857 1.95089285714286  C 4.63690476190476 2.29910714285714  3.9389880952381 2.76636904761905  3.35267857142857 3.35267857142857  C 2.76636904761905 3.93898809523809  2.29910714285714 4.63690476190476  1.95089285714286 5.44642857142857  C 1.60267857142857 6.25595238095238  1.42857142857143 7.10714285714286  1.42857142857143 8  C 1.42857142857143 8.89285714285714  1.60267857142857 9.74404761904762  1.95089285714286 10.5535714285714  C 2.29910714285714 11.3630952380952  2.76636904761905 12.0610119047619  3.35267857142857 12.6473214285714  C 3.9389880952381 13.233630952381  4.63690476190476 13.7008928571429  5.44642857142857 14.0491071428571  C 6.25595238095238 14.3973214285714  7.10714285714286 14.5714285714286  8 14.5714285714286  C 8.89285714285714 14.5714285714286  9.74404761904762 14.3973214285714  10.5535714285714 14.0491071428571  C 11.3630952380952 13.7008928571429  12.0610119047619 13.233630952381  12.6473214285714 12.6473214285714  C 13.233630952381 12.0610119047619  13.7008928571429 11.3630952380952  14.0491071428571 10.5535714285714  C 14.3973214285714 9.74404761904762  14.5714285714286 8.89285714285714  14.5714285714286 8  C 14.5714285714286 7.10714285714286  14.3973214285714 6.25595238095238  14.0491071428571 5.44642857142857  C 13.7008928571429 4.63690476190476  13.233630952381 3.93898809523809  12.6473214285714 3.35267857142857  C 12.0610119047619 2.76636904761905  11.3630952380952 2.29910714285714  10.5535714285714 1.95089285714286  Z M 4.89285714285714 0.633928571428571  C 5.88095238095238 0.211309523809524  6.91666666666667 0  8 0  C 9.08333333333333 0  10.1190476190476 0.211309523809524  11.1071428571429 0.633928571428571  C 12.0952380952381 1.05654761904762  12.9464285714286 1.625  13.6607142857143 2.33928571428571  C 14.375 3.05357142857143  14.9434523809524 3.9047619047619  15.3660714285714 4.89285714285714  C 15.7886904761905 5.88095238095238  16 6.91666666666667  16 8  C 16 9.08333333333333  15.7886904761905 10.1190476190476  15.3660714285714 11.1071428571429  C 14.9434523809524 12.0952380952381  14.375 12.9464285714286  13.6607142857143 13.6607142857143  C 12.9464285714286 14.375  12.0952380952381 14.9434523809524  11.1071428571429 15.3660714285714  C 10.1190476190476 15.7886904761905  9.08333333333333 16  8 16  C 6.91666666666667 16  5.88095238095238 15.7886904761905  4.89285714285714 15.3660714285714  C 3.90476190476191 14.9434523809524  3.05357142857143 14.375  2.33928571428571 13.6607142857143  C 1.625 12.9464285714286  1.05654761904762 12.0952380952381  0.633928571428571 11.1071428571429  C 0.211309523809524 10.1190476190476  0 9.08333333333333  0 8  C 0 6.91666666666667  0.211309523809524 5.88095238095238  0.633928571428571 4.89285714285714  C 1.05654761904762 3.9047619047619  1.625 3.05357142857143  2.33928571428571 2.33928571428571  C 3.05357142857143 1.625  3.90476190476191 1.05654761904762  4.89285714285714 0.633928571428571  Z " fill-rule="nonzero" fill="#ffffff" stroke="none" transform="matrix(1 0 0 1 65 2905 )" />
  </g>
</svg>