<?xml version="1.0" encoding="utf-8"?>
<svg version="1.1" xmlns:xlink="http://www.w3.org/1999/xlink" width="17px" height="17px" xmlns="http://www.w3.org/2000/svg">
  <defs>
    <radialGradient cx="7.40152994791667" cy="8.41511707988981" r="16.0916130594019" gradientTransform="matrix(0.9453125 -6.62341369821484E-16 7.00658639149999E-16 1 0.404771169026685 5.04546410174336E-15 )" gradientUnits="userSpaceOnUse" id="RadialGradient346">
      <stop id="Stop347" stop-color="#0d3c78" offset="0" />
      <stop id="Stop348" stop-color="#0d3c78" offset="1" />
    </radialGradient>
  </defs>
  <g transform="matrix(1 0 0 1 -44 -1312 )">
    <path d="M 16.6929032258065 2.34680134680135  C 16.8976344086022 2.61391694725028  17 2.93827160493827  17 3.31986531986532  C 17 3.70145903479237  16.8976344086022 4.02581369248036  16.6929032258065 4.29292929292929  L 8.75225806451613 14.6531986531987  L 7.26064516129032 16.5993265993266  C 7.05591397849462 16.8664421997755  6.80731182795699 17  6.51483870967742 17  C 6.22236559139785 17  5.97376344086022 16.8664421997755  5.76903225806452 16.5993265993266  L 4.27741935483871 14.6531986531987  L 0.307096774193548 9.47306397306397  C 0.10236559139785 9.20594837261504  0 8.88159371492705  0 8.5  C 0 8.11840628507295  0.10236559139785 7.79405162738496  0.307096774193548 7.52693602693603  L 1.79870967741935 5.58080808080808  C 2.00344086021505 5.31369248035915  2.25204301075269 5.18013468013468  2.54451612903226 5.18013468013468  C 2.83698924731183 5.18013468013468  3.08559139784946 5.31369248035915  3.29032258064516 5.58080808080808  L 6.51483870967742 9.80218855218855  L 13.7096774193548 0.400673400673401  C 13.9144086021505 0.133557800224466  14.1630107526882 0  14.4554838709677 0  C 14.7479569892473 0  14.9965591397849 0.133557800224466  15.2012903225806 0.400673400673401  L 16.6929032258065 2.34680134680135  Z " fill-rule="nonzero" fill="url(#RadialGradient346)" stroke="none" transform="matrix(1 0 0 1 44 1312 )" />
  </g>
</svg>