<?xml version="1.0" encoding="utf-8"?>
<svg version="1.1" xmlns:xlink="http://www.w3.org/1999/xlink" width="27px" height="26px" xmlns="http://www.w3.org/2000/svg">
  <defs>
    <radialGradient cx="11.75537109375" cy="12.8701790633609" r="24.610702326144" gradientTransform="matrix(0.981670673076923 -7.2178226198495E-16 7.3525906577469E-16 1 0.215468039879422 8.7233593672952E-15 )" gradientUnits="userSpaceOnUse" id="RadialGradient349">
      <stop id="Stop350" stop-color="#0d3c78" offset="0" />
      <stop id="Stop351" stop-color="#0d3c78" offset="1" />
    </radialGradient>
  </defs>
  <g transform="matrix(1 0 0 1 -62 -1752 )">
    <path d="M 26.9424715909091 20.1463068181818  C 26.9808238636364 20.2324810606061  27 20.3617424242424  27 20.5340909090909  C 27 20.8664772727273  26.9360795454545 21.3004261363636  26.8082386363636 21.8359375  C 26.6803977272727 22.3714488636364  26.5461647727273 22.7930871212121  26.4055397727273 23.1008522727273  C 26.1370738636364 23.7163825757576  25.3572443181818 24.3688446969697  24.0660511363636 25.0582386363636  C 22.8643465909091 25.6860795454545  21.6754261363636 26  20.4992897727273 26  C 20.1541193181818 26  19.8153409090909 25.9784564393939  19.4829545454545 25.9353693181818  C 19.1505681818182 25.8922821969697  18.7830255681818 25.8153409090909  18.3803267045455 25.7045454545455  C 17.9776278409091 25.59375  17.6772017045455 25.5044981060606  17.4790482954545 25.4367897727273  C 17.2808948863636 25.3690814393939  16.9261363636364 25.2428977272727  16.4147727272727 25.0582386363636  C 15.9034090909091 24.8735795454545  15.5901988636364 24.7627840909091  15.4751420454545 24.7258522727273  C 14.2223011363636 24.2949810606061  13.1036931818182 23.7840909090909  12.1193181818182 23.1931818181818  C 10.4957386363636 22.2206439393939  8.80823863636364 20.8910984848485  7.05681818181818 19.2045454545455  C 5.30539772727273 17.5179924242424  3.92471590909091 15.8929924242424  2.91477272727273 14.3295454545455  C 2.30113636363636 13.3816287878788  1.77059659090909 12.3044507575758  1.32315340909091 11.0980113636364  C 1.28480113636364 10.9872159090909  1.16974431818182 10.6856060606061  0.977982954545455 10.1931818181818  C 0.786221590909091 9.70075757575757  0.655184659090909 9.35913825757575  0.584872159090909 9.16832386363637  C 0.514559659090909 8.97750946969697  0.421875 8.68821022727273  0.306818181818182 8.30042613636363  C 0.191761363636364 7.91264204545454  0.111860795454545 7.55871212121212  0.0671164772727273 7.23863636363636  C 0.0223721590909091 6.9185606060606  0 6.59232954545455  0 6.25994318181818  C 0 5.12736742424242  0.325994318181818 3.98248106060606  0.977982954545455 2.82528409090909  C 1.69389204545455 1.58191287878787  2.37144886363636 0.83096590909091  3.01065340909091 0.572443181818181  C 3.33025568181818 0.437026515151513  3.76811079545455 0.307765151515149  4.32421875 0.18465909090909  C 4.88032670454546 0.0615530303030292  5.33096590909091 0  5.67613636363636 0  C 5.85511363636364 0  5.98934659090909 0.0184659090909096  6.07883522727273 0.055397727272726  C 6.30894886363636 0.129261363636364  6.64772727272727 0.597064393939394  7.09517045454545 1.45880681818182  C 7.23579545454546 1.69270833333333  7.42755681818182 2.02509469696969  7.67045454545455 2.45596590909091  C 7.91335227272727 2.88683712121212  8.13707386363636 3.27769886363636  8.34161931818182 3.62855113636364  C 8.54616477272727 3.97940340909091  8.74431818181818 4.30871212121212  8.93607954545455 4.61647727272727  C 8.97443181818182 4.66571969696969  9.08629261363636 4.81960227272727  9.27166193181818 5.078125  C 9.45703125 5.33664772727273  9.59446022727273 5.55516098484848  9.68394886363636 5.73366477272727  C 9.7734375 5.91216856060606  9.81818181818182 6.08759469696969  9.81818181818182 6.25994318181818  C 9.81818181818182 6.5061553030303  9.63600852272727 6.81392045454546  9.27166193181818 7.18323863636364  C 8.90731534090909 7.55255681818182  8.51100852272727 7.89109848484848  8.08274147727273 8.19886363636363  C 7.65447443181818 8.50662878787878  7.25816761363636 8.83285984848485  6.89382102272727 9.17755681818182  C 6.52947443181818 9.52225378787879  6.34730113636364 9.80539772727273  6.34730113636364 10.0269886363636  C 6.34730113636364 10.1377840909091  6.37926136363636 10.2762784090909  6.44318181818182 10.4424715909091  C 6.50710227272727 10.6086647727273  6.56143465909091 10.7348484848485  6.60617897727273 10.8210227272727  C 6.65092329545455 10.907196969697  6.74041193181818 11.0549242424242  6.87464488636364 11.2642045454545  C 7.00887784090909 11.4734848484848  7.08238636363636 11.5904356060606  7.09517045454545 11.6150568181818  C 8.06676136363636 13.3016098484848  9.17897727272727 14.7481060606061  10.4318181818182 15.9545454545455  C 11.6846590909091 17.1609848484848  13.1867897727273 18.2320075757576  14.9382102272727 19.1676136363636  C 14.9637784090909 19.1799242424242  15.0852272727273 19.2507102272727  15.3025568181818 19.3799715909091  C 15.5198863636364 19.5092329545455  15.6732954545455 19.5954071969697  15.7627840909091 19.6384943181818  C 15.8522727272727 19.6815814393939  15.9833096590909 19.7339015151515  16.1558948863636 19.7954545454545  C 16.3284801136364 19.8570075757576  16.4723011363636 19.8877840909091  16.5873579545455 19.8877840909091  C 16.8174715909091 19.8877840909091  17.1115056818182 19.7123579545455  17.4694602272727 19.3615056818182  C 17.8274147727273 19.0106534090909  18.1661931818182 18.6290246212121  18.4857954545455 18.2166193181818  C 18.8053977272727 17.8042140151515  19.1569602272727 17.4225852272727  19.5404829545455 17.0717329545455  C 19.9240056818182 16.7208806818182  20.2436079545455 16.5454545454545  20.4992897727273 16.5454545454545  C 20.6782670454546 16.5454545454545  20.8604403409091 16.5885416666667  21.0458096590909 16.6747159090909  C 21.2311789772727 16.7608901515151  21.4580965909091 16.8932291666667  21.7265625 17.0717329545455  C 21.9950284090909 17.2502367424242  22.1548295454546 17.3579545454545  22.2059659090909 17.3948863636364  C 22.5255681818182 17.5795454545455  22.8675426136364 17.7703598484848  23.2318892045455 17.9673295454545  C 23.5962357954545 18.1642992424242  24.0021306818182 18.3797348484848  24.4495738636364 18.6136363636364  C 24.8970170454546 18.8475378787879  25.2421875 19.032196969697  25.4850852272727 19.1676136363636  C 26.3799715909091 19.5984848484848  26.8657670454545 19.9247159090909  26.9424715909091 20.1463068181818  Z " fill-rule="nonzero" fill="url(#RadialGradient349)" stroke="none" transform="matrix(1 0 0 1 62 1752 )" />
  </g>
</svg>