<?xml version="1.0" encoding="utf-8"?>
<svg version="1.1" xmlns:xlink="http://www.w3.org/1999/xlink" width="30px" height="21px" xmlns="http://www.w3.org/2000/svg">
  <defs>
    <radialGradient cx="13.0615234375" cy="10.3951446280992" r="26.8440052415573" gradientTransform="matrix(1 -5.29386527357777E-16 3.920085359608E-16 0.740495867768595 -3.90100642891141E-15 2.69758298613484 )" gradientUnits="userSpaceOnUse" id="RadialGradient352">
      <stop id="Stop353" stop-color="#0d3c78" offset="0" />
      <stop id="Stop354" stop-color="#0d3c78" offset="1" />
    </radialGradient>
  </defs>
  <g transform="matrix(1 0 0 1 -59 -1826 )">
    <path d="M 28.3258928571429 8.06889204545455  C 28.9620535714286 7.68110795454545  29.5200892857143 7.24857954545455  30 6.77130681818182  L 30 18.6136363636364  C 30 19.2698863636364  29.7377232142857 19.8316761363636  29.2131696428571 20.2990056818182  C 28.6886160714286 20.7663352272727  28.0580357142857 21  27.3214285714286 21  L 2.67857142857143 21  C 1.94196428571429 21  1.31138392857143 20.7663352272727  0.786830357142857 20.2990056818182  C 0.262276785714286 19.8316761363636  0 19.2698863636364  0 18.6136363636364  L 0 6.77130681818182  C 0.491071428571429 7.25852272727273  1.0546875 7.69105113636363  1.69084821428571 8.06889204545455  C 5.73102678571429 10.5149147727273  8.50446428571428 12.2301136363636  10.0111607142857 13.2144886363636  C 10.6473214285714 13.6321022727273  11.1635044642857 13.9577414772727  11.5597098214286 14.19140625  C 11.9559151785714 14.4250710227273  12.4832589285714 14.6637073863636  13.1417410714286 14.9073153409091  C 13.8002232142857 15.1509232954545  14.4140625 15.2727272727273  14.9832589285714 15.2727272727273  L 15 15.2727272727273  L 15.0167410714286 15.2727272727273  C 15.5859375 15.2727272727273  16.1997767857143 15.1509232954545  16.8582589285714 14.9073153409091  C 17.5167410714286 14.6637073863636  18.0440848214286 14.4250710227273  18.4402901785714 14.19140625  C 18.8364955357143 13.9577414772727  19.3526785714286 13.6321022727273  19.9888392857143 13.2144886363636  C 21.8861607142857 11.9914772727273  24.6651785714286 10.2762784090909  28.3258928571429 8.06889204545455  Z M 29.2047991071429 0.700994318181817  C 29.7349330357143 1.16832386363636  30 1.73011363636364  30 2.38636363636364  C 30 3.171875  29.7265625 3.92258522727273  29.1796875 4.63849431818182  C 28.6328125 5.35440340909091  27.9520089285714 5.96590909090909  27.1372767857143 6.47301136363636  C 22.9408482142857 9.06818181818182  20.3292410714286 10.6839488636364  19.3024553571429 11.3203125  C 19.1908482142857 11.3899147727273  18.9536830357143 11.5415482954545  18.5909598214286 11.7752130681818  C 18.2282366071429 12.0088778409091  17.9268973214286 12.1977982954545  17.6869419642857 12.3419744318182  C 17.4469866071429 12.4861505681818  17.1568080357143 12.6477272727273  16.81640625 12.8267045454545  C 16.4760044642857 13.0056818181818  16.1551339285714 13.1399147727273  15.8537946428571 13.2294034090909  C 15.5524553571429 13.3188920454545  15.2734375 13.3636363636364  15.0167410714286 13.3636363636364  L 15 13.3636363636364  L 14.9832589285714 13.3636363636364  C 14.7265625 13.3636363636364  14.4475446428571 13.3188920454545  14.1462053571429 13.2294034090909  C 13.8448660714286 13.1399147727273  13.5239955357143 13.0056818181818  13.18359375 12.8267045454545  C 12.8431919642857 12.6477272727273  12.5530133928571 12.4861505681818  12.3130580357143 12.3419744318182  C 12.0731026785714 12.1977982954545  11.7717633928571 12.0088778409091  11.4090401785714 11.7752130681818  C 11.0463169642857 11.5415482954545  10.8091517857143 11.3899147727273  10.6975446428571 11.3203125  C 9.68191964285714 10.6839488636364  8.21986607142857 9.77663352272727  6.31138392857143 8.59836647727273  C 4.40290178571429 7.42009943181818  3.25892857142857 6.71164772727272  2.87946428571429 6.47301136363636  C 2.1875 6.05539772727272  1.53459821428571 5.48117897727273  0.920758928571429 4.75035511363636  C 0.306919642857143 4.01953125  0 3.34090909090909  0 2.71448863636364  C 0 1.93892045454545  0.231584821428572 1.29261363636363  0.694754464285714 0.775568181818183  C 1.15792410714286 0.258522727272725  1.81919642857143 0  2.67857142857143 0  L 27.3214285714286 0  C 28.046875 0  28.6746651785714 0.23366477272727  29.2047991071429 0.700994318181817  Z " fill-rule="nonzero" fill="url(#RadialGradient352)" stroke="none" transform="matrix(1 0 0 1 59 1826 )" />
  </g>
</svg>